<svg xmlns="http://www.w3.org/2000/svg" version="1.1" xmlns:xlink="http://www.w3.org/1999/xlink" xmlns:svgjs="http://svgjs.dev/svgjs" width="1500" height="935" viewBox="0 0 1500 935"><g transform="matrix(1,0,0,1,-0.9090909090909918,0.3785425101214628)"><svg viewBox="0 0 396 247" data-background-color="#f5650a" preserveAspectRatio="xMidYMid meet" height="935" width="1500" xmlns="http://www.w3.org/2000/svg" xmlns:xlink="http://www.w3.org/1999/xlink"><g id="tight-bounds" transform="matrix(1,0,0,1,0.2400000000000091,-0.09999999999999432)"><svg viewBox="0 0 395.52 247.2" height="247.2" width="395.52"><g><svg></svg></g><g><svg viewBox="0 0 395.52 247.2" height="247.2" width="395.52"><mask id="e6657807-398f-48c3-8ccc-3ec12aedf3a1"><rect width="640" height="400" fill="white"></rect><g transform="matrix(1,0,0,1,39.55199999999999,79.45883253588516)"><svg viewBox="0 0 316.416 88.28233492822967" height="88.28233492822967" width="316.416"><g><svg viewBox="0 0 316.416 88.28233492822967" height="88.28233492822967" width="316.416"><g><svg viewBox="0 0 316.416 88.28233492822967" height="88.28233492822967" width="316.416"><g><svg viewBox="0 0 316.416 88.28233492822967" height="88.28233492822967" width="316.416"><g id="SvgjsG3435"><svg viewBox="0 0 316.416 88.28233492822967" height="88.28233492822967" width="316.416" id="SvgjsSvg3434"><g><svg viewBox="0 0 316.416 88.28233492822967" height="88.28233492822967" width="316.416"><g transform="matrix(1,0,0,1,0,0)"><svg width="316.416" viewBox="-1.5 -42.55 168.19 47.65" height="88.28233492822967" data-palette-color="#3f414e"><path d="M26.9-38.55L27.85-38.55 27.85-30.55 26.9-30.55Q26.9-30.9 26.75-31.25 26.6-31.6 26.35-31.6L26.35-31.6 10.15-31.6 10.15-22.75 23.25-22.75Q23.5-22.75 23.65-23.1 23.8-23.45 23.8-23.8L23.8-23.8 24.75-23.8 24.75-15.8 23.8-15.8Q23.8-16.15 23.65-16.5 23.5-16.85 23.25-16.85L23.25-16.85 10.15-16.85 10.15-1.5Q10.15-1.25 10.53-1.1 10.9-0.95 11.3-0.95L11.3-0.95 11.3 0 2.5 0 2.5-0.95Q2.9-0.95 3.28-1.1 3.65-1.25 3.65-1.5L3.65-1.5 3.65-36Q3.65-36.25 3.28-36.4 2.9-36.55 2.55-36.55L2.55-36.55 2.55-37.5 26.35-37.5Q26.6-37.5 26.75-37.85 26.9-38.2 26.9-38.55L26.9-38.55ZM43.1 0.6Q39.4 0.6 36.57-0.98 33.75-2.55 32.17-5.3 30.6-8.05 30.6-11.5L30.6-11.5Q30.6-14.9 32.17-17.7 33.75-20.5 36.6-22.13 39.45-23.75 43.1-23.75L43.1-23.75Q46.6-23.75 49.45-22.18 52.3-20.6 53.95-17.82 55.6-15.05 55.6-11.5L55.6-11.5Q55.6-8.4 54.12-5.63 52.65-2.85 49.8-1.13 46.95 0.6 43.1 0.6L43.1 0.6ZM43.1-5.15Q46.05-5.15 47.87-6.88 49.7-8.6 49.7-11.35L49.7-11.35Q49.7-14.2 47.87-16.05 46.05-17.9 43.1-17.9L43.1-17.9Q40.35-17.9 38.5-16.07 36.65-14.25 36.65-11.5L36.65-11.5Q36.65-8.6 38.5-6.88 40.35-5.15 43.1-5.15L43.1-5.15ZM71.59 0.6Q67.89 0.6 65.07-0.98 62.24-2.55 60.67-5.3 59.09-8.05 59.09-11.5L59.09-11.5Q59.09-14.9 60.67-17.7 62.24-20.5 65.09-22.13 67.94-23.75 71.59-23.75L71.59-23.75Q75.09-23.75 77.94-22.18 80.8-20.6 82.44-17.82 84.09-15.05 84.09-11.5L84.09-11.5Q84.09-8.4 82.62-5.63 81.14-2.85 78.3-1.13 75.44 0.6 71.59 0.6L71.59 0.6ZM71.59-5.15Q74.55-5.15 76.37-6.88 78.19-8.6 78.19-11.35L78.19-11.35Q78.19-14.2 76.37-16.05 74.55-17.9 71.59-17.9L71.59-17.9Q68.84-17.9 67-16.07 65.14-14.25 65.14-11.5L65.14-11.5Q65.14-8.6 67-6.88 68.84-5.15 71.59-5.15L71.59-5.15ZM102.74-23.6Q106.29-23.6 109.19-22.08 112.09-20.55 113.77-17.8 115.44-15.05 115.44-11.45L115.44-11.45Q115.44-7.8 113.79-5.08 112.14-2.35 109.27-0.85 106.39 0.65 102.74 0.65L102.74 0.65Q98.54 0.65 95.44-1.85L95.44-1.85 95.44 0 88.14 0 88.14-0.95Q88.49-0.95 88.87-1.1 89.24-1.25 89.24-1.5L89.24-1.5 89.24-36Q89.24-36.25 88.87-36.4 88.49-36.55 88.14-36.55L88.14-36.55 88.14-37.5 96.54-37.5 96.54-36.55Q96.19-36.55 95.82-36.4 95.44-36.25 95.44-36L95.44-36 95.44-21.25Q98.44-23.6 102.74-23.6L102.74-23.6ZM102.34-4.65Q105.34-4.65 107.37-6.5 109.39-8.35 109.39-11.45L109.39-11.45Q109.39-14.35 107.39-16.28 105.39-18.2 102.34-18.2L102.34-18.2Q99.24-18.2 97.24-16.25 95.24-14.3 95.24-11.3L95.24-11.3Q95.24-9.55 96.17-8.03 97.09-6.5 98.74-5.58 100.39-4.65 102.34-4.65L102.34-4.65ZM131.14-24.05Q134.99-24.05 137.79-22.38 140.59-20.7 142.04-17.85 143.49-15 143.49-11.55L143.49-11.55Q143.49-10.5 143.34-9.45L143.34-9.45 125.04-9.45Q125.24-7.05 127.14-5.7 129.04-4.35 131.69-4.35L131.69-4.35Q133.49-4.35 134.72-4.85 135.94-5.35 136.89-6.35L136.89-6.35Q136.99-6.55 136.99-6.6L136.99-6.6Q136.99-6.8 136.84-7.03 136.69-7.25 136.54-7.35L136.54-7.35 137.14-8.1 142.69-3.75 142.14-3Q141.39-3.45 141.09-3.1L141.09-3.1Q137.59 1.1 131.69 1.1L131.69 1.1Q127.89 1.1 124.99-0.58 122.09-2.25 120.52-5.08 118.94-7.9 118.94-11.35L118.94-11.35Q118.94-15 120.49-17.9 122.04-20.8 124.81-22.43 127.59-24.05 131.14-24.05L131.14-24.05ZM125.09-14.1L137.49-14.1Q137.29-16.15 135.41-17.57 133.54-19 131.19-19L131.19-19Q128.84-19 127.14-17.57 125.44-16.15 125.09-14.1L125.09-14.1ZM161.74-24.5L162.69-24.5 162.69-16.45 161.74-16.45Q161.74-16.8 161.59-17.25 161.44-17.7 161.19-17.75L161.19-17.75 160.84-17.75Q159.29-17.75 157.71-16.88 156.14-16 155.11-14.58 154.09-13.15 154.09-11.55L154.09-11.55 154.09-1.5Q154.09-1.25 154.46-1.1 154.84-0.95 155.19-0.95L155.19-0.95 155.19 0 146.79 0 146.79-0.95Q147.14-0.95 147.51-1.1 147.89-1.25 147.89-1.5L147.89-1.5 147.89-21.5Q147.89-21.75 147.51-21.9 147.14-22.05 146.79-22.05L146.79-22.05 146.79-23 154.09-23 154.09-20.85Q155.44-22.1 157.34-22.85 159.24-23.6 161.14-23.6L161.14-23.6 161.19-23.6 161.24-23.6Q161.49-23.6 161.61-23.9 161.74-24.2 161.74-24.5L161.74-24.5Z" opacity="1" transform="matrix(1,0,0,1,0,0)" fill="black" class="wordmark-text-0" id="SvgjsPath3433" stroke-width="7" stroke="black" stroke-linejoin="round"></path></svg></g></svg></g></svg></g></svg></g><g></g></svg></g></svg></g></svg></g></mask><g transform="matrix(1,0,0,1,39.55199999999999,79.45883253588516)"><svg viewBox="0 0 316.416 88.28233492822967" height="88.28233492822967" width="316.416"><g><svg viewBox="0 0 316.416 88.28233492822967" height="88.28233492822967" width="316.416"><g><svg viewBox="0 0 316.416 88.28233492822967" height="88.28233492822967" width="316.416"><g><svg viewBox="0 0 316.416 88.28233492822967" height="88.28233492822967" width="316.416"><g id="textblocktransform"><svg viewBox="0 0 316.416 88.28233492822967" height="88.28233492822967" width="316.416" id="textblock"><g><svg viewBox="0 0 316.416 88.28233492822967" height="88.28233492822967" width="316.416"><g transform="matrix(1,0,0,1,0,0)"><svg width="316.416" viewBox="-1.5 -42.55 168.19 47.65" height="88.28233492822967" data-palette-color="#3f414e"><path d="M26.9-38.55L27.85-38.55 27.85-30.55 26.9-30.55Q26.9-30.9 26.75-31.25 26.6-31.6 26.35-31.6L26.35-31.6 10.15-31.6 10.15-22.75 23.25-22.75Q23.5-22.75 23.65-23.1 23.8-23.45 23.8-23.8L23.8-23.8 24.75-23.8 24.75-15.8 23.8-15.8Q23.8-16.15 23.65-16.5 23.5-16.85 23.25-16.85L23.25-16.85 10.15-16.85 10.15-1.5Q10.15-1.25 10.53-1.1 10.9-0.95 11.3-0.95L11.3-0.95 11.3 0 2.5 0 2.5-0.95Q2.9-0.95 3.28-1.1 3.65-1.25 3.65-1.5L3.65-1.5 3.65-36Q3.65-36.25 3.28-36.4 2.9-36.55 2.55-36.55L2.55-36.55 2.55-37.5 26.35-37.5Q26.6-37.5 26.75-37.85 26.9-38.2 26.9-38.55L26.9-38.55ZM43.1 0.6Q39.4 0.6 36.57-0.98 33.75-2.55 32.17-5.3 30.6-8.05 30.6-11.5L30.6-11.5Q30.6-14.9 32.17-17.7 33.75-20.5 36.6-22.13 39.45-23.75 43.1-23.75L43.1-23.75Q46.6-23.75 49.45-22.18 52.3-20.6 53.95-17.82 55.6-15.05 55.6-11.5L55.6-11.5Q55.6-8.4 54.12-5.63 52.65-2.85 49.8-1.13 46.95 0.6 43.1 0.6L43.1 0.6ZM43.1-5.15Q46.05-5.15 47.87-6.88 49.7-8.6 49.7-11.35L49.7-11.35Q49.7-14.2 47.87-16.05 46.05-17.9 43.1-17.9L43.1-17.9Q40.35-17.9 38.5-16.07 36.65-14.25 36.65-11.5L36.65-11.5Q36.65-8.6 38.5-6.88 40.35-5.15 43.1-5.15L43.1-5.15ZM71.59 0.6Q67.89 0.6 65.07-0.98 62.24-2.55 60.67-5.3 59.09-8.05 59.09-11.5L59.09-11.5Q59.09-14.9 60.67-17.7 62.24-20.5 65.09-22.13 67.94-23.75 71.59-23.75L71.59-23.75Q75.09-23.75 77.94-22.18 80.8-20.6 82.44-17.82 84.09-15.05 84.09-11.5L84.09-11.5Q84.09-8.4 82.62-5.63 81.14-2.85 78.3-1.13 75.44 0.6 71.59 0.6L71.59 0.6ZM71.59-5.15Q74.55-5.15 76.37-6.88 78.19-8.6 78.19-11.35L78.19-11.35Q78.19-14.2 76.37-16.05 74.55-17.9 71.59-17.9L71.59-17.9Q68.84-17.9 67-16.07 65.14-14.25 65.14-11.5L65.14-11.5Q65.14-8.6 67-6.88 68.84-5.15 71.59-5.15L71.59-5.15ZM102.74-23.6Q106.29-23.6 109.19-22.08 112.09-20.55 113.77-17.8 115.44-15.05 115.44-11.45L115.44-11.45Q115.44-7.8 113.79-5.08 112.14-2.35 109.27-0.85 106.39 0.65 102.74 0.65L102.74 0.65Q98.54 0.65 95.44-1.85L95.44-1.85 95.44 0 88.14 0 88.14-0.95Q88.49-0.95 88.87-1.1 89.24-1.25 89.24-1.5L89.24-1.5 89.24-36Q89.24-36.25 88.87-36.4 88.49-36.55 88.14-36.55L88.14-36.55 88.14-37.5 96.54-37.5 96.54-36.55Q96.19-36.55 95.82-36.4 95.44-36.25 95.44-36L95.44-36 95.44-21.25Q98.44-23.6 102.74-23.6L102.74-23.6ZM102.34-4.65Q105.34-4.65 107.37-6.5 109.39-8.35 109.39-11.45L109.39-11.45Q109.39-14.35 107.39-16.28 105.39-18.2 102.34-18.2L102.34-18.2Q99.24-18.2 97.24-16.25 95.24-14.3 95.24-11.3L95.24-11.3Q95.24-9.55 96.17-8.03 97.09-6.5 98.74-5.58 100.39-4.65 102.34-4.65L102.34-4.65ZM131.14-24.05Q134.99-24.05 137.79-22.38 140.59-20.7 142.04-17.85 143.49-15 143.49-11.55L143.49-11.55Q143.49-10.5 143.34-9.45L143.34-9.45 125.04-9.45Q125.24-7.05 127.14-5.7 129.04-4.35 131.69-4.35L131.69-4.35Q133.49-4.35 134.72-4.85 135.94-5.35 136.89-6.35L136.89-6.35Q136.99-6.55 136.99-6.6L136.99-6.6Q136.99-6.8 136.84-7.03 136.69-7.25 136.54-7.35L136.54-7.35 137.14-8.1 142.69-3.75 142.14-3Q141.39-3.45 141.09-3.1L141.09-3.1Q137.59 1.1 131.69 1.1L131.69 1.1Q127.89 1.1 124.99-0.58 122.09-2.25 120.52-5.08 118.94-7.9 118.94-11.35L118.94-11.35Q118.94-15 120.49-17.9 122.04-20.8 124.81-22.43 127.59-24.05 131.14-24.05L131.14-24.05ZM125.09-14.1L137.49-14.1Q137.29-16.15 135.41-17.57 133.54-19 131.19-19L131.19-19Q128.84-19 127.14-17.57 125.44-16.15 125.09-14.1L125.09-14.1ZM161.74-24.5L162.69-24.5 162.69-16.45 161.74-16.45Q161.74-16.8 161.59-17.25 161.44-17.7 161.19-17.75L161.19-17.75 160.84-17.75Q159.29-17.75 157.71-16.88 156.14-16 155.11-14.58 154.09-13.15 154.09-11.55L154.09-11.55 154.09-1.5Q154.09-1.25 154.46-1.1 154.84-0.95 155.19-0.95L155.19-0.95 155.19 0 146.79 0 146.79-0.95Q147.14-0.95 147.51-1.1 147.89-1.25 147.89-1.5L147.89-1.5 147.89-21.5Q147.89-21.75 147.51-21.9 147.14-22.05 146.79-22.05L146.79-22.05 146.79-23 154.09-23 154.09-20.85Q155.44-22.1 157.34-22.85 159.24-23.6 161.14-23.6L161.14-23.6 161.19-23.6 161.24-23.6Q161.49-23.6 161.61-23.9 161.74-24.2 161.74-24.5L161.74-24.5Z" opacity="1" transform="matrix(1,0,0,1,0,0)" fill="#3f414e" class="wordmark-text-0" data-fill-palette-color="primary" id="text-0"></path></svg></g></svg></g></svg></g></svg></g><g></g></svg></g></svg></g></svg></g><g mask="url(#e6657807-398f-48c3-8ccc-3ec12aedf3a1)"><g transform="matrix(3.1204265770752997, 0, 0, 3.1204265770752997, 74.82299392967587, 1)"><svg xmlns="http://www.w3.org/2000/svg" xmlns:xlink="http://www.w3.org/1999/xlink" version="1.1" x="0" y="0" viewBox="10.603 10.71 78.795 78.57900000000001" enable-background="new 0 0 100 100" xml:space="preserve" height="78.57900000000001" width="78.795" class="icon-none" data-fill-palette-color="accent" id="none"><path d="M79.236 48.382l0.658-0.06c-0.788-8.699-8.871-15.436-18.464-15.436-0.087 0-0.174 0-0.262 0.001-4.615 0.071-8.927 1.653-12.273 4.446-2.482-1.072-5.251-1.667-8.155-1.635-3.933 0.053-7.573 1.193-10.561 3.13L23.373 10.71l-2.916 0.706 7.131 29.46c-1.294 1.228-2.397 2.632-3.239 4.194L13.462 21.673l-2.72 1.266 11.839 25.443H10.603v1.5c0 21.729 17.671 39.407 39.393 39.407 21.727 0 39.402-17.678 39.402-39.407v-1.5H79.236zM61.212 35.888c0.074-0.001 0.148-0.001 0.224-0.001 7.967 0 14.678 5.438 15.44 12.495H58.938c-1.092-3.894-3.678-7.224-7.151-9.494C54.453 37.003 57.726 35.942 61.212 35.888zM40.779 38.7c6.995-0.095 13.013 3.982 15.02 9.683H26.172C28.171 42.781 34.059 38.791 40.779 38.7zM49.995 86.29c-19.565 0-35.573-15.524-36.362-34.907h42.836c0.001 0.004 0.002 0.008 0.002 0.012l0.13-0.012h29.767C85.578 70.765 69.564 86.29 49.995 86.29z" fill="#3f414e" data-fill-palette-color="accent"></path></svg></g></g></svg></g><defs></defs></svg><rect width="395.52" height="247.2" fill="none" stroke="none" visibility="hidden"></rect></g></svg></g></svg>